<svg viewBox="0 0 2187.8 329.57" xmlns="http://www.w3.org/2000/svg"><g fill="#e11b22"><path d="m388.3 329.57h-280.36c-59.52 0-107.94-51.44-107.94-114.67 0-60.79 44.78-110.69 101.14-114.43 24.08-60.41 80.46-100.47 142.54-100.47 54.08 0 104 30 132.05 78.73a112.3 112.3 0 0 1 12.57-.73c65.25 0 118.34 56.42 118.34 125.78s-53.09 125.79-118.34 125.79zm-280.23-206.93c-47.32 0-85.68 41.39-85.68 92.26s38.38 92.27 85.55 92.27h280.36c52.91 0 95.95-46.38 95.95-103.39s-43.05-103.39-95.95-103.39a89.45 89.45 0 0 0 -16.58 1.61l-8.22 1.54-3.82-7.43c-23.32-45.45-67.78-73.69-116-73.69-55 0-104.92 37.27-124.13 92.75l-2.65 7.7-8.83-.18z"/><path d="m258.6 149.46a14.17 14.17 0 0 1 -28.34 0v-64.64a14.17 14.17 0 0 1 28.34 0v64.65z"/><path d="m271 95.38v24.62a57.38 57.38 0 1 1 -52.92 0v-24.6a79.45 79.45 0 1 0 52.92 0z"/><path d="m700.3 273.94c-37 0-59-30.1-59-72.27 0-46.5 25.77-72.17 58-72.17s44 14.75 48.2 30.31l54.79-14c-12.12-27.12-42.11-66-101.14-66-66.44 0-118 51.86-118 123.4 0 73.61 51.14 122.69 116.14 122.69 40.72 0 87.06-22.27 105.31-72.69l-57.53-11c-7.16 18.56-11.34 31.76-46.75 31.76z"/><path d="m826.13.94h58.14v319.7h-58.14z"/><path d="m1091 94.55c-20.67-12.06-43.09-14.74-65.36-14.74-15 0-65.88 0-88.36 40.62-7.26 13.4-8.3 22.89-9.22 34.54h57.42c0-5.36.72-10.72 5.67-16.8 5.57-7.33 13.45-15 36.7-15 38.81 0 40.31 25.88 40.31 37.32-25.88 6-19.64 4.33-65.1 14.33-27.68 5.68-63.15 13-80.11 46.81a71.12 71.12 0 0 0 -7.42 31.75c0 40.42 31.75 72.89 84.49 72.89a102.14 102.14 0 0 0 66.08-23.71v18h57.37v-152.5c.03-25.26-4.86-56.7-32.47-73.51zm-23.15 134.54c0 7.12 0 14.23-3.35 21.13-5.93 13.93-26.28 27.84-54.69 27.84-22.32 0-37.68-9.07-37.68-27.42 0-24.75 28.1-30.72 48-34.74 26.5-5.26 47.73-9.7 47.73-9.7z"/><path d="m1490.88 94.55c-20.41-12.06-43-14.74-65.36-14.74-14.85 0-65.83 0-88.3 40.62-7.37 13.4-8.4 22.89-9.28 34.54h57.42c.1-5.36.83-10.72 5.68-16.8 5.51-7.33 13.5-15 36.75-15 38.76 0 40 25.88 40 37.32-25.57 6-19.38 4.33-64.74 14.33-27.63 5.68-63.36 13-80.11 46.81a70.31 70.31 0 0 0 -7.53 31.75c0 40.42 31.86 72.89 84.59 72.89a102.89 102.89 0 0 0 66.14-23.71v18h57.32v-152.5c0-25.26-4.95-56.7-32.58-73.51zm-23.3 134.54c0 7.12 0 14.23-3.09 21.13-6 13.93-26.39 27.84-54.7 27.84-22.36 0-37.67-9.07-37.67-27.42 0-24.75 28.14-30.72 47.93-34.74 26.4-5.26 47.53-9.7 47.53-9.7z"/><path d="m1231.24 113.83v-28.83h-58.3v235.64h58.3v-95.87c0-58.05 13-68.66 24.28-76.09 18-12.37 50.41-9.17 50.41-9.17v-57.32c-58.66 0-74.69 31.64-74.69 31.64z"/><path d="m2170.07 276.41c-26.8 0-26.8-8.45-26.8-38.14v-112.07h43.73v-41.2h-43.71v-84.06h-56.7v84.06h-31.45v41.24h31.45v121.1c0 23.92 0 39.18 3.91 48.35 10.73 28.87 50.32 30.21 62.17 30.21 9.18 0 20-1.86 35.15-3.2v-46.91c-8.25.52-14 .62-17.73.62z"/><path d="m1693.36 79.81c-23.2 0-47.63 11-64.95 28.15v-22.96h-56.29v235.64h56.29v-146.4c0-24.43 19-45.87 48.87-45.87 25.87 0 44.32 15.87 44.32 46.7v145.57h54.65v-149.28c0-12.68 0-25.05-3.71-37.42-10.83-35.67-43.72-54.13-79.18-54.13z"/><path d="m1925.63 79.81c-66.63.83-115.63 49.49-115.63 121.19 0 4.54 1 14.23 1 14.23 6.91 75.66 65 110.72 122.37 110.72 47.64 0 77-17.73 106-56.6l-40.72-30.62c-7 9.69-27.94 36.29-66.29 36.29-36.6 0-61.85-24.74-68.66-60h175.67c0-82.89-45.25-135.16-113.71-135.16zm-56.63 92.68s6.8-49.38 55-49.38c48.46 0 58.46 49.38 58.46 49.38z"/><path d="m518.75 322.88a24 24 0 1 1 24.12-23.88 24.07 24.07 0 0 1 -24.12 23.91zm.25-43.88a19.87 19.87 0 1 0 19.73 20 19.9 19.9 0 0 0 -19.73-20z"/><path d="m523.19 310.51-4.48-8.51h-3.88v8.51h-4.28l.11-22.95h8.49c2.87 0 5.28.44 7.12 2.85a7.5 7.5 0 0 1 1.32 4.47 6.24 6.24 0 0 1 -4.53 6.29l5.06 9.38zm-4.3-19.3c-1.35 0-2.68 0-4 0v7.17h2.8c2.6 0 5.57-.2 5.58-3.63-.04-2.58-2.11-3.53-4.38-3.54z"/></g></svg>